# AST/ASF file generated using VICON BodyLanguage
# -----------------------------------------------
:version 1.10
:name VICON
:units
  mass 1.0
  length 0.45
  angle deg
:documentation
   .ast/.asf automatically generated from VICON data using
   VICON BodyBuilder and BodyLanguage model FoxedUp or BRILLIANT.MOD
:root
   order TX TY TZ RX RY RZ
   axis XYZ
   position 0 0 0  
   orientation 0 0 0 
:bonedata
  begin
     id 1 
     name lhipjoint
     direction 0.499407 -0.589134 0.635228 
     length 2.99786 
     axis 0 0 0  XYZ
  end
  begin
     id 2 
     name lfemur
     direction 0.34202 -0.939693 0  
     length 6.89561  
     axis 0 0 20  XYZ
    dof rx ry rz
    limits (-160.0 20.0)
           (-70.0 70.0)
           (-60.0 70.0)
  end
  begin
     id 3 
     name ltibia
     direction 0.34202 -0.939693 0   
     length 8.00494   
     axis 0 0 20   XYZ
    dof rx
    limits (-10.0 170.0)
  end
  begin
     id 4 
     name lfoot
     direction 0.0680929 -0.194353 0.978565   
     length 2.06695   
     axis -90 7.62852e-016 20   XYZ
    dof rx rz
    limits (-45.0 90.0)
           (-70.0 20.0)
  end
  begin
     id 5 
     name ltoes
     direction 1.5346e-011 -4.21731e-011 1   
     length 1.04539   
     axis -90 7.62852e-016 20   XYZ
    dof rx
    limits (-90.0 20.0)
  end
  begin
     id 6 
     name rhipjoint
     direction -0.347526 -0.63762 0.687508   
     length 2.76989  
     axis 0 0 0  XYZ 
  end
  begin
     id 7 
     name rfemur
     direction -0.34202 -0.939693 0   
     length 6.97892   
     axis 0 0 -20   XYZ
    dof rx ry rz
    limits (-160.0 20.0)
           (-70.0 70.0)
           (-70.0 60.0)
  end
  begin
     id 8 
     name rtibia
     direction -0.34202 -0.939693 0   
     length 7.77056   
     axis 0 0 -20   XYZ
    dof rx
    limits (-10.0 170.0)
 end
 begin
     id 9 
     name rfoot
     direction -0.102685 -0.282124 0.953867   
     length 2.15099  
     axis -90 -7.62852e-016 -20   XYZ
    dof rx rz
    limits (-45.0 90.0)
           (-20.0 70.0)
  end
  begin
     id 10 
     name rtoes
     direction -0.000106751 -0.00118973 0.999999   
     length 1.0765   
     axis -90 -7.62852e-016 -20   XYZ
    dof rx
    limits (-90.0 20.0)
  end
  begin
     id 11 
     name lowerback
     direction -0.0190651 0.988667 0.148909   
     length 1.90627   
     axis 0 0 0   XYZ
    dof rx ry rz
    limits (-20.0 45.0)
           (-30.0 30.0)
           (-30.0 30.0)
  end
  begin
     id 12 
     name upperback
     direction -0.0180344 0.995767 -0.0901298   
     length 1.88167   
     axis 0 0 0   XYZ
    dof rx ry rz
    limits (-20.0 45.0)
           (-30.0 30.0)
           (-30.0 30.0)
  end
  begin
     id 13 
     name thorax
     direction -0.00329861 0.986394 -0.164366   
     length 1.91528   
     axis 0 0 0   XYZ
    dof rx ry rz
    limits (-20.0 45.0)
           (-30.0 30.0)
           (-30.0 30.0)
  end
  begin
     id 14 
     name lowerneck
     direction -0.0177752 0.978637 -0.204826   
     length 2.09812   
     axis 0 0 0   XYZ
    dof rx ry rz
    limits (-20.0 45.0)
           (-30.0 30.0)
           (-30.0 30.0)
  end
  begin
     id 15 
     name upperneck
     direction 0.108032 0.994134 0.00511541   
     length 2.11937   
     axis 0 0 0   XYZ
    dof rx ry rz
    limits (-20.0 45.0)
           (-30.0 30.0)
           (-30.0 30.0)
  end
  begin
     id 16
     name head
     direction 0.0423659 0.998938 0.0181058  
     length 2.14816  
     axis 0 0 0   XYZ
    dof rx ry rz
    limits (-20.0 45.0)
           (-30.0 30.0)
           (-30.0 30.0)
  end
  begin
     id 17 
     name lclavicle
     direction 0.869509 0.396908 0.293968  
     length 4.73713  
     axis 0 0 0   XYZ
    dof ry rz
    limits (-20.0 10.0)
           (0.0 20.0)
  end
  begin
     id 18 
     name lhumerus
     direction 1 -4.49e-011 3.63829e-027   
     length 4.72096   
     axis 180 -30 -90   XYZ
    dof rx ry rz
    limits (-60.0 90.0)
           (-90.0 90.0)
           (-90.0 90.0)
  end
  begin
     id 19
     name lradius
     direction 1 -4.48932e-011 7.19196e-027   
     length 3.18148   
     axis 180 -30 -90   XYZ
    dof rx
    limits (-10.0 170.0)
  end
  begin
     id 20
     name lwrist
     direction 1 -4.48995e-011 1.85462e-026   
     length 1.59074   
     axis -1.20349e-014 90 90   XYZ
    dof ry
    limits (-180.0 0.0)
 end
  begin
     id 21 
     name lhand
     direction 1 -4.48943e-011 3.70924e-026   
     length 0.848715   
     axis -2.36681e-014 90 90   XYZ
    dof rx rz
    limits (-90.0 90.0)
           (-45.0 45.0)
  end
  begin
     id 22 
     name lfingers
     direction 1 -4.48949e-011 7.41849e-026   
     length 0.684256   
     axis -4.73363e-014 90 90   XYZ
    dof rx
    limits (0.0 90.0)
  end
  begin
     id 23
     name lthumb
     direction 0.707107 -6.35018e-011 0.707107   
     length 0.982458   
     axis -90 45 2.85299e-015   XYZ
    dof rx rz
    limits (-45.0 45.0)
           (-45.0 45.0)
  end
  begin
     id 24 
     name rclavicle
     direction -0.923214 0.372787 0.0932992   
     length 4.28107  
     axis 0 0 0   XYZ 
    dof ry rz
    limits (-10.0 20.0)
           (-20.0 0.0)
  end
  begin
     id 25 
     name rhumerus
     direction -1 -4.48968e-011 6.59881e-018  
     length 4.76918   
     axis 180 30 90   XYZ
    dof rx ry rz
    limits (-90.0 60.0)
           (-90.0 90.0)
           (-90.0 90.0)
  end
  begin
     id 26 
     name rradius
     direction -1 0.000264575 -0.000152753   
     length 3.36438   
     axis 180 30 90   XYZ
    dof rx
    limits (-10.0 170.0)
  end
  begin
     id 27 
     name rwrist
     direction -1 -4.86632e-005 -0.00030086   
     length 1.68219   
     axis -1.20349e-014 -90 -90   XYZ
    dof ry
    limits (-180.0 0.0)
  end
  begin
     id 28
     name rhand
     direction -1 -4.48915e-011 3.70924e-026   
     length 0.767694   
     axis -2.36681e-014 -90 -90   XYZ
    dof rx rz
    limits (-90.0 90.0)
           (-45.0 45.0)
  end
  begin
     id 29
     name rfingers
     direction -1 -4.49015e-011 7.41849e-026   
     length 0.618935   
     axis -4.73363e-014 -90 -90   XYZ
    dof rx
    limits (0.0 90.0)
  end
  begin
     id 30
     name rthumb
     direction -0.707107 -6.34859e-011 0.707107   
     length 0.88867   
     axis -90 -45 -2.85299e-015   XYZ
    dof rx rz
    limits (-45.0 45.0)
           (-45.0 45.0)
  end
:hierarchy
  begin
    root lhipjoint rhipjoint lowerback
    lhipjoint lfemur
    lfemur ltibia
    ltibia lfoot
    lfoot ltoes
    rhipjoint rfemur
    rfemur rtibia
    rtibia rfoot
    rfoot rtoes
    lowerback upperback
    upperback thorax
    thorax lowerneck lclavicle rclavicle
    lowerneck upperneck
    upperneck head
    lclavicle lhumerus
    lhumerus lradius
    lradius lwrist
    lwrist lhand lthumb
    lhand lfingers
    rclavicle rhumerus
    rhumerus rradius
    rradius rwrist
    rwrist rhand rthumb
    rhand rfingers
  end

#!OML:ASF C:\Documents and Settings\Administrator\Desktop\New Folder (2)\VR_Jason.ASF
:FULLY-SPECIFIED
:DEGREES
780
root -1.85879 17.6992 0.122415 11.8789 -3.51588 8.06906
lowerback -20.5079 1.38476 -3.13491
upperback 6.1334 3.10821 -1.91381
thorax 18.8803 1.15187 0.639919
lowerneck 24.0117 -2.84943 -6.09356
upperneck 0.00554608 -4.44319 13.6162
head -3.36312 -3.00429 5.73004
rclavicle -4.1546e-014 8.34896e-015
rhumerus 7.56978 -25.6649 -54.9317
rradius 93.4413
rwrist -36.4631
rhand 27.5993 12.7359
rfingers 7.12502
rthumb 51.5362 -7.64122
lclavicle -4.1546e-014 8.34896e-015
lhumerus 22.4475 3.31953 63.1865
lradius 71.6495
lwrist 47.0615
lhand 8.40583 32.6004
lfingers 7.12502
lthumb 33.6128 59.4693
rfemur -25.8994 -10.6398 19.9051
rtibia 32.3837
rfoot -19.4036 -11.9152
rtoes -8.05028
lfemur -67.4843 2.22851 -24.1098
ltibia 50.9237
lfoot 2.0707 10.5156
ltoes -8.84262
781
root -1.88128 17.7127 0.112095 11.8362 -3.70291 8.05499
lowerback -20.4976 1.40394 -3.06059
upperback 6.20956 3.10589 -1.85356
thorax 18.9715 1.15181 0.668177
lowerneck 23.8469 -2.8696 -5.92508
upperneck -0.136739 -4.42157 13.3855
head -3.39004 -2.97826 5.62257
rclavicle 2.8625e-014 -2.42517e-014
rhumerus 7.88073 -25.6425 -55.0422
rradius 93.5428
rwrist -36.0007
rhand 27.1482 13.0763
rfingers 7.12502
rthumb 51.1258 -7.53468
lclavicle 2.8625e-014 -2.42517e-014
lhumerus 21.4396 3.57601 62.9476
lradius 72.4942
lwrist 47.0769
lhand 8.20367 32.3405
lfingers 7.12502
lthumb 33.4207 59.251
rfemur -25.644 -10.2164 19.9721
rtibia 31.9613
rfoot -19.2339 -12.5125
rtoes -6.84851
lfemur -67.4223 1.79858 -21.924
ltibia 50.7754
lfoot 4.17362 9.65711
ltoes -3.2183
782
root -1.89573 17.7229 0.105733 11.7621 -3.93765 8.18547
lowerback -20.531 1.40299 -3.00813
upperback 6.33329 3.09412 -1.83345
thorax 19.1553 1.14661 0.659333
lowerneck 23.7801 -2.80708 -5.96589
upperneck -0.326529 -4.33649 13.3298
head -3.44676 -2.93494 5.60615
rclavicle -1.53064e-014 2.3059e-014
rhumerus 8.40489 -25.6566 -55.2206
rradius 93.5725
rwrist -35.9047
rhand 26.8967 13.2549
rfingers 7.12502
rthumb 50.8966 -7.48406
lclavicle -1.53064e-014 2.3059e-014
lhumerus 21.6049 3.99559 62.7733
lradius 72.4889
lwrist 47.167
lhand 8.12698 32.4525
lfingers 7.12502
lthumb 33.3478 59.3786
rfemur -25.3595 -9.89378 19.8181
rtibia 31.5577
rfoot -19.0114 -12.5323
rtoes -4.98115
lfemur -67.3013 1.33878 -19.9249
ltibia 50.908
lfoot 6.70036 9.10903
ltoes 1.64997
783
root -1.90527 17.7476 0.100176 11.6499 -4.12917 8.43602
lowerback -20.5002 1.37895 -2.9679
upperback 6.33998 3.05548 -1.87074
thorax 19.1498 1.13858 0.577454
lowerneck 23.981 -2.74368 -6.04002
upperneck -0.447553 -4.26921 13.3195
head -3.5181 -2.90975 5.61925
rclavicle 1.39149e-015 8.74653e-015
rhumerus 8.58332 -25.4922 -55.2615
rradius 93.6407
rwrist -35.8854
rhand 26.5795 13.3651
rfingers 7.12502
rthumb 50.6072 -7.53291
lclavicle 1.39149e-015 8.74653e-015
lhumerus 21.6679 4.44627 62.6983
lradius 72.1991
lwrist 47.3432
lhand 8.32606 32.6281
lfingers 7.12502
lthumb 33.537 59.5135
rfemur -25.0387 -9.86377 19.5383
rtibia 31.1165
rfoot -19.0415 -11.8647
rtoes -4.85239
lfemur -67.298 0.729867 -18.054
ltibia 51.2273
lfoot 9.74019 9.05608
ltoes 1.98008
784
root -1.91442 17.7604 0.0909762 11.5745 -4.23181 8.64988
lowerback -20.4024 1.34914 -2.91887
upperback 6.28126 2.99619 -1.88735
thorax 19.0153 1.1237 0.505819
lowerneck 24.2375 -2.71595 -5.95718
upperneck -0.486602 -4.22331 13.1609
head -3.57384 -2.88638 5.55985
rclavicle 1.2921e-014 -6.36111e-015
rhumerus 8.29995 -25.3134 -55.0393
rradius 93.8164
rwrist -36.0856
rhand 26.6114 13.1664
rfingers 7.12502
rthumb 50.6363 -7.71571
lclavicle 1.2921e-014 -6.36111e-015
lhumerus 22.0141 4.79694 62.7694
lradius 71.5638
lwrist 47.3618
lhand 8.34124 32.8016
lfingers 7.12502
lthumb 33.5514 59.6838
rfemur -24.831 -9.83005 19.3246
rtibia 30.7491
rfoot -18.9904 -11.5716
rtoes -5.77836
lfemur -67.1587 0.0453417 -16.0619
ltibia 51.8935
lfoot 11.253 10.2518
ltoes 6.80387
785
root -1.92613 17.7781 0.0796657 11.4556 -4.33227 8.89306
lowerback -20.2924 1.31927 -2.92795
upperback 6.32653 2.95577 -1.89189
thorax 19.0036 1.10601 0.488165
lowerneck 24.3071 -2.67723 -5.93548
upperneck -0.510638 -4.1694 13.1092
head -3.59735 -2.85933 5.53787
rclavicle -3.53837e-014 2.14687e-014
rhumerus 8.31831 -25.2298 -54.9259
rradius 93.8274
rwrist -35.8505
rhand 26.2392 13.5256
rfingers 7.12502
rthumb 50.2964 -7.54012
lclavicle -3.53837e-014 2.14687e-014
lhumerus 22.1873 5.0576 62.7694
lradius 71.2737
lwrist 47.4745
lhand 7.91874 32.8067
lfingers 7.12502
lthumb 33.1498 59.7752
rfemur -24.5554 -9.60947 19.0524
rtibia 30.3866
rfoot -19.1915 -11.7645
rtoes -5.72862
lfemur -67.3401 -0.447796 -14.4948
ltibia 52.7054
lfoot 16.9508 9.1641
ltoes -3.97821
786
root -1.93509 17.7897 0.0721391 11.2959 -4.39505 9.23547
lowerback -20.1689 1.28358 -2.99968
upperback 6.33045 2.92697 -1.92311
thorax 18.9282 1.08979 0.478331
lowerneck 24.3886 -2.66358 -5.97123
upperneck -0.442678 -4.17308 13.059
head -3.58698 -2.85867 5.52883
rclavicle -1.70955e-014 3.18055e-015
rhumerus 8.40027 -25.1577 -54.9258
rradius 93.7758
rwrist -35.2266
rhand 25.4361 14.3389
rfingers 7.12502
rthumb 49.5612 -7.11124
lclavicle -1.70955e-014 3.18055e-015
lhumerus 21.9729 5.24333 62.8012
lradius 71.2847
lwrist 47.7167
lhand 7.69458 32.809
lfingers 7.12502
lthumb 32.9366 59.8225
rfemur -24.2687 -9.43675 18.6505
rtibia 30.137
rfoot -19.6613 -11.7796
rtoes -4.65858
lfemur -67.4547 -0.936005 -13.1338
ltibia 53.9115
lfoot 22.8489 8.04426
ltoes -2.90666
787
root -1.94376 17.8009 0.0666562 11.1427 -4.37073 9.63047
lowerback -20.0638 1.21536 -3.14396
upperback 6.25651 2.8692 -1.94494
thorax 18.761 1.05354 0.511115
lowerneck 24.6577 -2.71768 -5.89641
upperneck -0.342291 -4.25482 12.8128
head -3.58812 -2.88909 5.44971
rclavicle 1.11319e-014 -1.74931e-014
rhumerus 8.34582 -25.0351 -54.8697
rradius 93.7329
rwrist -34.5955
rhand 24.1967 15.7503
rfingers 7.12502
rthumb 48.4227 -6.26291
lclavicle 1.11319e-014 -1.74931e-014
lhumerus 21.882 5.38256 63.021
lradius 71.1146
lwrist 47.6853
lhand 7.77841 32.9015
lfingers 7.12502
lthumb 33.0163 59.8983
rfemur -23.9512 -9.42676 18.2045
rtibia 29.848
rfoot -19.4818 -11.7991
rtoes -5.27204
lfemur -67.5022 -1.33837 -12.0594
ltibia 55.4834
lfoot 26.6142 8.23149
ltoes 3.71249
788
root -1.94867 17.8078 0.0661723 11.0146 -4.32355 9.94208
lowerback -20.0548 1.16261 -3.13425
upperback 6.21109 2.79686 -1.972
thorax 18.7007 1.02719 0.447911
lowerneck 24.6337 -2.79356 -5.66154
upperneck -0.0542601 -4.33626 12.4391
head -3.49418 -2.89998 5.28895
rclavicle -2.90226e-014 -3.02153e-014
rhumerus 8.27222 -24.8222 -54.7441
rradius 93.7579
rwrist -34.1132
rhand 22.1581 17.5277
rfingers 7.12502
rthumb 46.5399 -5.33854
lclavicle -2.90226e-014 -3.02153e-014
lhumerus 21.7984 5.42191 63.0523
lradius 70.972
lwrist 47.6321
lhand 7.7345 32.6942
lfingers 7.12502
lthumb 32.9746 59.6997
rfemur -23.6602 -9.52543 17.8479
rtibia 29.6104
rfoot -19.1262 -11.8646
rtoes -7.13877
lfemur -67.6163 -1.62713 -11.1373
ltibia 57.5655
lfoot 27.4316 8.70583
ltoes 2.88093
